ffmpeg started on 2016-11-27 at 02:50:40
Report written to "Output/NVENCh264/results/ffmpeg/crowd_run_2160p50llhq2000k.log"
Command line:
Tools/ffmpeg/ffmpeg -benchmark -y -i Input/y4m/crowd_run_2160p50.y4m -c:v h264_nvenc -preset llhq -b:v 2000k -an Output/NVENCh264/encoded/crowd_run_2160p50llhq2000k.mkv
ffmpeg version N-82227-gdb23fde Copyright (c) 2000-2016 the FFmpeg developers
  built with gcc 5.4.0 (Ubuntu 5.4.0-6ubuntu1~16.04.2) 20160609
  configuration: --prefix=/home/jaroslav/ffmpeg_build --pkg-config-flags=--static --extra-cflags=-I/home/jaroslav/ffmpeg_build/include --extra-ldflags=-L/home/jaroslav/ffmpeg_build/lib --bindir=/home/jaroslav/bin --enable-gpl --enable-libass --enable-libfdk-aac --enable-libfreetype --enable-libmp3lame --enable-libopus --enable-libtheora --enable-libvorbis --enable-libvpx --enable-libx264 --enable-libx265 --enable-nvenc --enable-libmfx --enable-libxvid --enable-libgsm --enable-libopencore-amrnb --enable-version3 --enable-nonfree
  libavutil      55. 35.100 / 55. 35.100
  libavcodec     57. 66.101 / 57. 66.101
  libavformat    57. 57.100 / 57. 57.100
  libavdevice    57.  2.100 / 57.  2.100
  libavfilter     6. 66.100 /  6. 66.100
  libswscale      4.  3.100 /  4.  3.100
  libswresample   2.  4.100 /  2.  4.100
  libpostproc    54.  2.100 / 54.  2.100
Input #0, yuv4mpegpipe, from 'Input/y4m/crowd_run_2160p50.y4m':
  Duration: 00:00:10.00, start: 0.000000, bitrate: 4976642 kb/s
    Stream #0:0: Video: rawvideo (I420 / 0x30323449), yuv420p(progressive), 3840x2160, SAR 1:1 DAR 16:9, 50 fps, 50 tbr, 50 tbn, 50 tbc
[h264_nvenc @ 0x41071c0] The variable bitrate rate-control requires the 'qmin' and/or 'qmax' option set.
Output #0, matroska, to 'Output/NVENCh264/encoded/crowd_run_2160p50llhq2000k.mkv':
  Metadata:
    encoder         : Lavf57.57.100
    Stream #0:0: Video: h264 (h264_nvenc) (Main) (H264 / 0x34363248), yuv420p, 3840x2160 [SAR 1:1 DAR 16:9], q=-1--1, 2000 kb/s, 50 fps, 1k tbn, 50 tbc
    Metadata:
      encoder         : Lavc57.66.101 h264_nvenc
    Side data:
      cpb: bitrate max/min/avg: 0/0/2000000 buffer size: 4000000 vbv_delay: -1
Stream mapping:
  Stream #0:0 -> #0:0 (rawvideo (native) -> h264 (h264_nvenc))
Press [q] to stop, [?] for help
frame=   11 fps=0.0 q=0.0 size=       0kB time=00:00:00.00 bitrate=N/A speed=   0x    frame=   22 fps= 21 q=0.0 size=       0kB time=00:00:00.00 bitrate=N/A speed=   0x    frame=   32 fps= 20 q=49.0 size=       1kB time=00:00:00.02 bitrate= 283.8kbits/s speed=0.0134x    frame=   49 fps= 24 q=49.0 size=       1kB time=00:00:00.36 bitrate=  16.5kbits/s speed=0.175x    frame=   67 fps= 26 q=49.0 size=       1kB time=00:00:00.72 bitrate=   8.3kbits/s speed=0.279x    frame=   85 fps= 27 q=49.0 size=       1kB time=00:00:01.08 bitrate=   5.5kbits/s speed=0.348x    frame=   90 fps= 16 q=49.0 size=       1kB time=00:00:01.18 bitrate=   5.0kbits/s speed=0.204x    frame=   91 fps=9.8 q=49.0 size=       1kB time=00:00:01.20 bitrate=   5.0kbits/s speed=0.13x    frame=   92 fps=7.5 q=49.0 size=       1kB time=00:00:01.22 bitrate=   4.9kbits/s speed=0.0997x    frame=  109 fps=8.5 q=49.0 size=       1kB time=00:00:01.56 bitrate=   3.8kbits/s speed=0.122x    frame=  127 fps=9.6 q=49.0 size=       1kB time=00:00:01.92 bitrate=   3.1kbits/s speed=0.145x    frame=  145 fps= 11 q=49.0 size=       1kB time=00:00:02.28 bitrate=   2.6kbits/s speed=0.165x    frame=  163 fps= 11 q=49.0 size=       1kB time=00:00:02.64 bitrate=   2.3kbits/s speed=0.184x    frame=  178 fps= 12 q=49.0 size=       1kB time=00:00:02.94 bitrate=   2.0kbits/s speed=0.196x    frame=  195 fps= 13 q=49.0 size=       1kB time=00:00:03.28 bitrate=   1.8kbits/s speed=0.211x    frame=  212 fps= 13 q=49.0 size=       1kB time=00:00:03.62 bitrate=   1.6kbits/s speed=0.226x    frame=  229 fps= 14 q=49.0 size=       1kB time=00:00:03.96 bitrate=   1.5kbits/s speed=0.239x    frame=  247 fps= 14 q=49.0 size=       1kB time=00:00:04.32 bitrate=   1.4kbits/s speed=0.253x    frame=  265 fps= 15 q=49.0 size=       1kB time=00:00:04.68 bitrate=   1.3kbits/s speed=0.266x    frame=  273 fps= 15 q=49.0 size=       1kB time=00:00:04.84 bitrate=   1.2kbits/s speed=0.267x    frame=  290 fps= 16 q=49.0 size=    3005kB time=00:00:05.18 bitrate=4751.9kbits/s speed=0.278x    frame=  308 fps= 16 q=49.0 size=    3005kB time=00:00:05.54 bitrate=4443.2kbits/s speed=0.289x    frame=  326 fps= 17 q=49.0 size=    3005kB time=00:00:05.90 bitrate=4172.1kbits/s speed= 0.3x    frame=  344 fps= 17 q=49.0 size=    3005kB time=00:00:06.26 bitrate=3932.2kbits/s speed=0.31x    frame=  362 fps= 17 q=49.0 size=    3005kB time=00:00:06.62 bitrate=3718.4kbits/s speed=0.32x    frame=  369 fps= 17 q=49.0 size=    3005kB time=00:00:06.76 bitrate=3641.4kbits/s speed=0.319x    frame=  387 fps= 18 q=49.0 size=    3005kB time=00:00:07.12 bitrate=3457.3kbits/s speed=0.328x    frame=  405 fps= 18 q=49.0 size=    3005kB time=00:00:07.48 bitrate=3291.0kbits/s speed=0.336x    frame=  423 fps= 19 q=49.0 size=    3005kB time=00:00:07.84 bitrate=3139.9kbits/s speed=0.345x    frame=  441 fps= 19 q=49.0 size=    3005kB time=00:00:08.20 bitrate=3002.0kbits/s speed=0.352x    frame=  459 fps= 19 q=49.0 size=    3005kB time=00:00:08.56 bitrate=2875.8kbits/s speed=0.36x    frame=  477 fps= 20 q=49.0 size=    3005kB time=00:00:08.92 bitrate=2759.7kbits/s speed=0.367x    frame=  495 fps= 20 q=49.0 size=    3005kB time=00:00:09.28 bitrate=2652.7kbits/s speed=0.374x    frame=  500 fps= 20 q=49.0 Lsize=    6215kB time=00:00:09.98 bitrate=5100.9kbits/s speed=0.399x    
video:6211kB audio:0kB subtitle:0kB other streams:0kB global headers:0kB muxing overhead: 0.068337%
bench: utime=1.120s
bench: maxrss=1398772kB
